<svg height="256px" width="256px" version="1.1" id="Layer_1" xmlns="http://www.w3.org/2000/svg" xmlns:xlink="http://www.w3.org/1999/xlink" viewBox="-51.2 -51.2 614.40 614.40" xml:space="preserve" fill="#000000" transform="matrix(1, 0, 0, 1, 0, 0)" stroke="#000000" stroke-width="0.00512"><g id="SVGRepo_bgCarrier" stroke-width="0"></g><g id="SVGRepo_tracerCarrier" stroke-linecap="round" stroke-linejoin="round"></g><g id="SVGRepo_iconCarrier"> <circle style="fill:#6cfd58;" cx="256" cy="256" r="256"></circle> <path style="fill:#9fe2fe;" d="M503.394,321.998l-82.141-82.141l-4.449,4.203l-75.352-75.352l-169.127,90.74l-82.189,52.143 l198.365,198.365C392.476,496.781,476.987,421.236,503.394,321.998z"></path> <path style="fill:#fe5634;" d="M385.184,223.716L385.184,223.716c-3.391,0-6.558-1.695-8.44-4.517l-28.56-42.839 c-7.17-10.754-19.239-17.213-32.161-17.213H195.977c-12.924,0-24.993,6.459-32.161,17.213l-28.56,42.839 c-1.881,2.822-5.048,4.517-8.439,4.517h-13.221c-19.416,0-35.157,15.741-35.157,35.157v26.538c0,19.416,15.741,35.157,35.157,35.157 h271.589c26.719,0,48.378-21.659,48.378-48.378v-0.095C433.562,245.376,411.903,223.716,385.184,223.716z"></path> <path style="fill:#fe5634;" d="M385.184,223.716L385.184,223.716c-3.391,0-6.558-1.695-8.44-4.517l-28.56-42.839 c-7.17-10.754-19.237-17.213-32.161-17.213H256v161.42h129.183c26.719,0,48.378-21.659,48.378-48.378v-0.095 C433.562,245.376,411.903,223.716,385.184,223.716z"></path> <circle style="fill:#000000;" cx="163.564" cy="316.164" r="36.697"></circle> <path style="fill:#000000;" d="M163.561,279.459c-0.026,0-0.05,0.003-0.076,0.003v73.385c0.026,0,0.05,0.003,0.076,0.003 c20.266,0,36.697-16.429,36.697-36.697C200.258,295.889,183.827,279.459,163.561,279.459z"></path> <circle style="fill:#ffffff;" cx="163.564" cy="316.164" r="17.606"></circle> <path style="fill:#ffffff;" d="M163.561,298.549c-0.026,0-0.05,0.003-0.076,0.003v35.206c0.026,0,0.05,0.003,0.076,0.003 c9.725,0,17.606-7.883,17.606-17.606C181.167,306.433,173.284,298.549,163.561,298.549z"></path> <circle style="fill:#000000;" cx="348.436" cy="316.164" r="36.697"></circle> <path style="fill:#000000;" d="M385.136,316.156c0-20.24-16.387-36.65-36.619-36.693v73.385 C368.749,352.806,385.136,336.396,385.136,316.156z"></path> <circle style="fill:#ffffff;" cx="348.436" cy="316.164" r="17.606"></circle> <path style="fill:#ffffff;" d="M366.047,316.156c0-9.699-7.842-17.561-17.53-17.603v35.206 C358.205,333.717,366.047,325.854,366.047,316.156z"></path> <path style="fill:#b4d5f3;" d="M248.173,168.708h-53.588c-6.082,0-11.762,3.039-15.136,8.101l-29.893,44.837h98.614v-52.938H248.173 z"></path> <path style="fill:#b4d5f3;" d="M263.827,221.646h98.614l-29.893-44.837c-3.374-5.061-9.054-8.101-15.136-8.101h-53.586V221.646z"></path> </g></svg>