<svg height="256px" width="256px" version="1.1" id="Layer_1" xmlns="http://www.w3.org/2000/svg" xmlns:xlink="http://www.w3.org/1999/xlink" viewBox="0 0 512.00 512.00" xml:space="preserve" fill="#000000" stroke="#000000" stroke-width="0.512"><g id="SVGRepo_bgCarrier" stroke-width="0"></g><g id="SVGRepo_tracerCarrier" stroke-linecap="round" stroke-linejoin="round"></g><g id="SVGRepo_iconCarrier"> <path style="fill:#ffffff;" d="M354.21,227.218v3.208H71.576l38.139-98.116H236.46c6.635,0,13.187,0.69,19.54,2.017 c21.932,4.577,41.556,16.75,54.774,34.513L354.21,227.218z"></path> <path style="fill:#ffffff;" d="M354.21,227.218v3.208H256v-96.099c21.932,4.577,41.556,16.75,54.774,34.513L354.21,227.218z"></path> <path style="fill:#57555C;" d="M318.945,159.488c-15.245-20.49-37.794-34.68-62.945-40.239c-7.784-1.724-15.809-2.612-23.939-2.612 H71.576v31.347h10.836L44.272,246.1h321.212v-24.064L318.945,159.488z M90.091,214.753l25.945-66.769h116.025 c8.244,0,16.321,1.264,23.939,3.678c15.109,4.754,28.442,13.96,37.804,26.54l27.188,36.551H90.091z"></path> <path style="fill:#ed5126;" d="M512,290.372v68.305H0v-55.766c0-48.609,39.549-88.158,88.158-88.158h271.904l107.728,19.874 C493.819,240.718,512,263.633,512,290.372z"></path> <path style="fill:#2B292C;" d="M365.484,222.036V246.1H256v-31.347h64.993l-27.188-36.551c-9.362-12.581-22.695-21.786-37.804-26.54 v-32.413c25.151,5.559,47.7,19.749,62.945,40.239L365.484,222.036z"></path> <path style="fill:#ffffff;" d="M134.353,343.16c0,16.927-13.72,30.657-30.657,30.657c-16.927,0-30.647-13.73-30.647-30.657 c0-16.927,13.72-30.647,30.647-30.647C120.633,312.513,134.353,326.233,134.353,343.16z"></path> <path style="fill:#ed5126;" d="M512,290.372v68.305H256V214.753h104.062l107.728,19.874C493.819,240.718,512,263.633,512,290.372z"></path> <path style="fill:#ffffff;" d="M134.353,343.16c0,16.927-13.72,30.657-30.657,30.657v-61.304 C120.633,312.513,134.353,326.233,134.353,343.16z"></path> <path style="fill:#2B292C;" d="M155.888,342.648c-0.272-28.526-23.625-51.681-52.193-51.681c-28.599,0-51.984,23.239-52.182,51.743 l-0.01,0.449c0,28.787,23.416,52.203,52.193,52.203c28.787,0,52.203-23.416,52.203-52.203L155.888,342.648z M103.696,364.016 c-11.421,0-20.731-9.247-20.846-20.647l0.01-0.303c0.042-11.442,9.394-20.752,20.835-20.752c11.452,0,20.804,9.31,20.846,20.752 v0.084c0.01,0.073,0.01,0.136,0.01,0.199C124.447,354.759,115.137,364.016,103.696,364.016z"></path> <path style="fill:#17171A;" d="M155.899,343.16c0,28.787-23.416,52.203-52.203,52.203v-31.347c11.442,0,20.752-9.258,20.856-20.668 c0-0.063,0-0.125-0.01-0.199v-0.084c-0.042-11.442-9.394-20.752-20.846-20.752v-31.347c28.568,0,51.921,23.155,52.193,51.681 L155.899,343.16z"></path> <path style="fill:#ffffff;" d="M437.06,343.16c0,16.927-13.72,30.657-30.657,30.657c-16.927,0-30.647-13.73-30.647-30.657 c0-16.927,13.72-30.647,30.647-30.647C423.34,312.513,437.06,326.233,437.06,343.16z"></path> <path style="fill:#ffffff;" d="M437.06,343.16c0,16.927-13.72,30.657-30.657,30.657v-61.304 C423.34,312.513,437.06,326.233,437.06,343.16z"></path> <path style="fill:#2B292C;" d="M458.595,342.648c-0.272-28.526-23.625-51.681-52.193-51.681c-28.599,0-51.984,23.239-52.182,51.743 l-0.01,0.449c0,28.787,23.416,52.203,52.193,52.203c28.787,0,52.203-23.416,52.203-52.203L458.595,342.648z M406.403,364.016 c-11.421,0-20.731-9.247-20.846-20.647l0.01-0.303c0.042-11.442,9.394-20.752,20.835-20.752c11.452,0,20.804,9.31,20.846,20.752 v0.084c0.01,0.073,0.01,0.136,0.01,0.199C427.154,354.759,417.844,364.016,406.403,364.016z"></path> <path style="fill:#17171A;" d="M458.606,343.16c0,28.787-23.416,52.203-52.203,52.203v-31.347c11.442,0,20.752-9.258,20.856-20.668 c0-0.063,0-0.125-0.01-0.199v-0.084c-0.042-11.442-9.394-20.752-20.846-20.752v-31.347c28.568,0,51.921,23.155,52.193,51.681 L458.606,343.16z"></path> </g></svg>